<svg aria-hidden="true" class="icon icon--logo" xmlns="http://www.w3.org/2000/svg" viewBox="0 0 725.75 196.15">
  <title>AAAS</title>
  <path d="M123.13,0c19.22,18.15,67.59,163.08,78.63,196.15V0H123.13"/>
  <path d="M150.33,195.83C139.29,162.11,97.41,18.8,75.14,0H0V195.83H1.63l72.73-191-60.77,191h1.94l66.3-178-55.2,178h2.59L89.29,33.39,40,195.67h2.27L73.38,129H65.91L96.1,49,73.38,129h6.82l-27.6,66.8h97.73"/>
  <path d="M647.72,190.58a24.3,24.3,0,0,1-7.48-1.12c-4.28-1.22-9.52-4.66-16.13-21-8.44-21-26.34-67.69-37-95.57l-8.23-21.4c-2.28-5.88-3.24-7.59-5.15-7.59s-2.82,1.75-5.16,8.19L524.43,172.59C520.69,183,517,189.15,508.88,190.2l-1.1.08a21.12,21.12,0,0,1-3.53-.82c-4.28-1.22-9.52-4.66-16.13-21-8.45-21.05-26.37-67.78-37.08-95.7L442.85,51.5c-2.28-5.88-3.23-7.59-5.15-7.59s-2.81,1.75-5.16,8.19L388.43,172.59C384.69,183,381,189.15,372.88,190.2l-1.1.08a20.83,20.83,0,0,1-3.53-.82c-4.29-1.22-9.52-4.66-16.14-21-8.44-21-26.34-67.69-37-95.57l-8.23-21.4c-2.28-5.88-3.23-7.59-5.15-7.59s-2.81,1.75-5.16,8.19L252.43,172.59C248.69,183,245,189.15,236.88,190.2l-5.51.38c-1.61,0-2.69.85-2.69,2.11,0,2.5,3.13,2.5,4.64,2.5l17.53-.44,4.42-.15,4.93.21,10.22.38c3.19,0,3.86-1.36,3.86-2.5,0-.78-.37-2.11-2.88-2.11h-1.94c-2.49,0-6.44-1.27-6.44-4.68a39.59,39.59,0,0,1,2.67-12.67l11.66-34.36c.33-.84.7-.91,1-.91h41.77c.51,0,.62.08.91.64,0,0,18,47.64,18,47.64a5.9,5.9,0,0,1,.42,2.06,2.72,2.72,0,0,1-.25,1.2,1.39,1.39,0,0,1-.76.76,2.28,2.28,0,0,0-2,2.25c0,2,2.19,2.07,5.83,2.26l.89,0c7.3.21,16.13.34,25.31.38l.77,0h4.47a12.78,12.78,0,0,0,2.15-.17l10.91-.27,4.43-.15,4.93.21,10.23.38c3.19,0,3.86-1.36,3.86-2.5,0-.78-.38-2.11-2.88-2.11h-1.94c-2.49,0-6.44-1.27-6.44-4.68a39.57,39.57,0,0,1,2.66-12.67s11.66-34.36,11.66-34.36c.33-.84.7-.91,1-.91h41.77c.51,0,.62.08.91.64,0,0,18,47.64,18,47.64a5.91,5.91,0,0,1,.42,2,2.73,2.73,0,0,1-.25,1.21,1.39,1.39,0,0,1-.76.76,2.27,2.27,0,0,0-2,2.25c0,2,2.19,2.07,5.83,2.26l.89,0c7.3.21,16.13.34,25.31.38l.77,0h4.47a12.79,12.79,0,0,0,2.15-.17l10.91-.27,4.42-.15,4.93.21,10.22.38c3.19,0,3.86-1.36,3.86-2.5,0-.78-.38-2.11-2.88-2.11h-1.94c-2.49,0-6.44-1.27-6.44-4.68a39.58,39.58,0,0,1,2.66-12.67s11.66-34.36,11.66-34.36c.33-.84.7-.91,1-.91h41.77c.51,0,.62.08.91.64,0,0,18,47.64,18,47.64a5.9,5.9,0,0,1,.42,2.06,2.73,2.73,0,0,1-.25,1.2,1.39,1.39,0,0,1-.76.76,2.27,2.27,0,0,0-2,2.25c0,2,2.19,2.07,5.83,2.26l.89,0c8.68.25,19.53.4,30.55.4,3.21,0,4.83-.84,4.83-2.5,0-1.4-1-2.11-2.88-2.11Zm-58.2-61.5H552.8a.53.53,0,0,1,0-.06c0-.06,17.13-52.44,17.13-52.44a6.2,6.2,0,0,1,.55-1.31,6.21,6.21,0,0,1,.56,1.31S589.51,129,589.51,129h0s0,.06,0,.11Zm-136,0H416.8a.5.5,0,0,1,0-.06c0-.06,17.12-52.44,17.12-52.44a6.17,6.17,0,0,1,.55-1.31,5.63,5.63,0,0,1,.56,1.31L453.51,129h0s0,.06,0,.11Zm-136,0H280.8a.26.26,0,0,1,0-.06l17.12-52.44a6.19,6.19,0,0,1,.55-1.31,5.81,5.81,0,0,1,.56,1.31L317.51,129h0a.64.64,0,0,1,0,.11Z"/>
  <path d="M653.75,190.78c-2.72-1.36-2.91-2.13-2.91-7.37,0-9.71.77-17.47,1-20.57.19-2.13.59-3.1,1.56-3.1,1.17,0,1.36.58,1.36,2.13a34.26,34.26,0,0,0,.58,7.18c2.91,14.36,15.73,19.79,28.75,19.79,18.65,0,27.78-13.39,27.78-25.8,0-13.39-5.63-21.15-22.34-34.92l-8.74-7.18c-20.6-16.87-25.26-28.9-25.26-42.1,0-20.76,15.54-34.92,40.22-34.92a75.22,75.22,0,0,1,18.06,1.94,32,32,0,0,0,6.8,1c1.56,0,1.94.39,1.94,1.36s-.77,7.37-.77,20.56c0,3.11-.39,4.46-1.36,4.46-1.16,0-1.35-1-1.56-2.52-.19-2.33-1.35-7.56-2.52-9.7S709.9,50.7,692,50.7c-13.4,0-23.9,8.34-23.9,22.5,0,11.06,5.44,17.65,23.7,32.59l5.44,4.27c22.93,18,28.37,30.07,28.37,45.6,0,7.95-3.11,22.69-16.52,32.21-8.36,5.81-18.85,8.14-29.34,8.14-9.13,0-18.07-1.35-26-5.23Z"/>
</svg>
