<svg class="icon icon--logo" xmlns="http://www.w3.org/2000/svg" viewBox="0 0 230.54 223.74">
  <title>SSEC</title>
  <path d="M87.5,5.6c37.1-15.4,79.7,2.3,95.1,39.4s-2.3,79.7-39.4,95.1s-79.7-2.3-95.1-39.4S50.3,20.9,87.5,5.6z M166.6,90	c-5.5-9.5-14.2-9.6-15.3-9.6l0,0l36.7-7.6l-36.7-7.7l0,0c5.1-4.2,11.6-6.6,18.2-6.8c8.1-0.1,15.1-10,10.6-17.6c0,0-1.3,11.9-16.4,8	c-10.6-2.8-16.8,3.3-17.6,4.1l0,0l20.6-31.4l-31.4,20.5l0,0c0.6-6.6,3.5-12.9,8.1-17.7c5.6-5.8,3.6-17.7-4.9-19.9	c0,0,7.5,9.4-6,17.2c-9.5,5.5-9.5,14.2-9.5,15.3l0,0l-7.7-36.7l-7.7,36.7l0,0c-4.2-5.1-6.6-11.6-6.8-18.2	c-0.1-8.1-10-15.1-17.6-10.6c0,0,11.9,1.3,8,16.4c-2.9,10.6,3.2,16.9,4,17.6l0,0L63.9,21.4l0,0L80.6,47l3.8,5.8l0,0	c-6.6-0.6-12.9-3.5-17.7-8.1c-5.8-5.6-17.7-3.6-20,4.9c0,0,9.4-7.5,17.2,6c5.5,9.5,14.3,9.6,15.3,9.6l0,0l-36.7,7.6l36.7,7.7l0,0 	c-5.1,4.3-11.6,6.7-18.3,6.8c-8.1,0.1-15.1,10-10.6,17.6c0,0,1.3-11.9,16.4-8c10.7,2.8,16.9-3.3,17.6-4l0,0l-20.5,31.4l31.4-20.5 c-0.6,6.6-3.5,12.9-8.1,17.7c-5.6,5.8-3.6,17.7,4.9,20c0,0-7.5-9.4,6-17.2c9.5-5.5,9.6-14.3,9.6-15.3l0,0l7.7,36.7l7.7-36.7l0,0 c4.3,5.1,6.7,11.6,6.8,18.2c0.1,8.1,10,15.1,17.6,10.6c0,0-11.9-1.3-8-16.4c2.8-10.6-3.3-16.8-4.1-17.6l0,0l31.4,20.5l-10.9-16.6 l-9.7-14.8l0,0c6.6,0.6,12.9,3.5,17.7,8.1c5.8,5.6,17.7,3.6,19.9-4.9C183.8,96,174.4,103.5,166.6,90z"/>
  <path d="M16.34,168.4c-.77-2.75-1.89-5.72-5.63-5.72a4.51,4.51,0,0,0-4.77,4.73c0,3.14,2.06,4.6,5.46,6.36s7.44,3.74,7.44,8.56c0,4.52-3.83,8.13-9.55,8.13a15,15,0,0,1-4.21-.65,14.79,14.79,0,0,1-2.11-.9,53,53,0,0,1-1.16-6.67l1.25-.3c.69,2.62,2.62,7,7.05,7a4.79,4.79,0,0,0,5.16-5.16c0-3.18-2.36-4.69-5.59-6.41-2.75-1.46-7.09-3.61-7.09-8.47,0-4.13,3.31-7.65,8.86-7.65a17.84,17.84,0,0,1,5.42,1c.17,1.55.39,3.23.73,5.93Z"/>
  <path d="M46.27,189.82V188.7c2.54-.26,3-.43,3-3.48V178c0-3.05-1.08-5-3.78-5a7.92,7.92,0,0,0-4.82,2.24,10.07,10.07,0,0,1,.13,1.81v8.38c0,2.71.39,3,2.75,3.22v1.12h-9.2V188.7c2.67-.26,3.05-.47,3.05-3.31V178c0-3.18-1.12-4.94-3.74-4.94-1.72,0-3.4,1.16-4.69,2.24v10.1c0,2.79.34,3.05,2.45,3.31v1.12H22.36V188.7c2.84-.26,3.22-.52,3.22-3.31v-8.9c0-2.75-.13-3-2.62-3.35v-1a26.24,26.24,0,0,0,6-1.76v3.48c.9-.6,1.85-1.38,3.14-2.19a6.39,6.39,0,0,1,3.53-1.16A5.13,5.13,0,0,1,40.38,174a40.2,40.2,0,0,1,3.57-2.41,5.94,5.94,0,0,1,3.23-1.12c3.35,0,5.46,2.36,5.46,6.58v8.3c0,2.88.34,3.05,2.79,3.31v1.12Z"/>
  <path d="M58.87,189.82V188.7c2.71-.26,3-.52,3-3.44V176.4c0-2.67-.13-2.84-2.71-3.27v-1a27.1,27.1,0,0,0,6.11-1.68v14.83c0,2.92.3,3.18,3.05,3.44v1.12Zm2.28-25.24a2.21,2.21,0,0,1,2.19-2.24,2.15,2.15,0,0,1,2.15,2.24,2.2,2.2,0,0,1-2.19,2.19A2.25,2.25,0,0,1,61.15,164.58Z"/>
  <path d="M79.46,189.77a4.37,4.37,0,0,1-1.81.56c-2.71,0-4.21-1.72-4.21-5.12V172.7h-3l-.17-.43L71.47,171h2v-3.14L76.24,165l.6.09V171H81.7a1.22,1.22,0,0,1-.26,1.68h-4.6v11.05c0,3.48,1.42,4.13,2.49,4.13a6.14,6.14,0,0,0,2.67-.73l.39,1.12Z"/>
  <path d="M97,189.82V188.7c2.49-.26,2.84-.52,2.84-3.31v-7.14c0-3.53-1.33-5.29-4.21-5.29a6.07,6.07,0,0,0-4.47,2.19v10.23c0,2.75.22,3.05,2.75,3.31v1.12H84.79V188.7c2.58-.21,3-.47,3-3.31V164.88c0-2.71-.09-2.92-2.92-3.18v-1a47.18,47.18,0,0,0,6.32-1.5v14.45c1.51-1.55,3.83-3.14,6.15-3.14,3.48,0,5.93,2.19,5.93,7.35v7.52c0,2.84.3,3.1,2.84,3.31v1.12Z"/>
  <path d="M120.36,176.1c-.82-2.54-2.32-4.26-4.43-4.26a2.81,2.81,0,0,0-2.79,3c0,1.94,1.72,2.92,3.65,3.74,3.23,1.33,5.42,2.88,5.42,5.85,0,3.91-3.65,5.93-7.09,5.93a8.63,8.63,0,0,1-4.95-1.46,20.29,20.29,0,0,1-.69-5.07l1.12-.21c.77,2.84,2.71,5.33,5.29,5.33a3,3,0,0,0,3.05-3c0-1.89-1.25-2.92-3.4-3.91-2.58-1.2-5.37-2.62-5.37-5.93,0-3,2.58-5.55,6.54-5.55a10,10,0,0,1,3.83.73,32.32,32.32,0,0,1,.95,4.6Z"/>
  <path d="M145.25,180.1c0,6.92-5.07,10.23-9.33,10.23a9.31,9.31,0,0,1-9.42-9.5c0-7.09,5.5-10.32,9.42-10.32A9.33,9.33,0,0,1,145.25,180.1Zm-14.75-.65c0,5.42,2.37,9.46,5.89,9.46,2.67,0,4.86-2,4.86-7.87,0-5-2-9.12-5.76-9.12C132.83,171.93,130.5,174.59,130.5,179.45Z"/>
  <path d="M160.95,189.82V188.7c2.54-.26,2.84-.6,2.84-3.57v-7.18c0-3-1-4.9-3.91-4.9a7.7,7.7,0,0,0-4.69,2.19v10.1c0,2.92.26,3.1,2.79,3.35v1.12h-9.33V188.7c2.92-.3,3.14-.52,3.14-3.35v-8.9c0-2.75-.26-2.88-2.58-3.31v-1a25.82,25.82,0,0,0,6-1.76v3.44c.86-.65,1.81-1.29,2.88-2a6.59,6.59,0,0,1,3.57-1.29c3.4,0,5.55,2.36,5.55,6.54v8.3c0,2.92.21,3.1,2.71,3.35v1.12Z"/>
  <path d="M173.37,189.82V188.7c2.71-.26,3-.52,3-3.44V176.4c0-2.67-.13-2.84-2.71-3.27v-1a27.08,27.08,0,0,0,6.11-1.68v14.83c0,2.92.3,3.18,3.05,3.44v1.12Zm2.28-25.24a2.21,2.21,0,0,1,2.19-2.24,2.15,2.15,0,0,1,2.15,2.24,2.2,2.2,0,0,1-2.19,2.19A2.25,2.25,0,0,1,175.65,164.58Z"/>
  <path d="M199.69,190.33a3.51,3.51,0,0,1-2-.82,4.47,4.47,0,0,1-1-1.94c-1.72,1.16-3.78,2.75-5.07,2.75a5.19,5.19,0,0,1-5.16-5.25c0-2.11,1.12-3.44,3.48-4.26,2.58-.86,5.72-2,6.66-2.79v-.77c0-3.1-1.46-4.86-3.61-4.86a2.43,2.43,0,0,0-1.94.86,6.24,6.24,0,0,0-1.29,2.84,1.2,1.2,0,0,1-1.25,1,2.1,2.1,0,0,1-1.89-1.85c0-.65.56-1.12,1.38-1.72a19.21,19.21,0,0,1,6.45-3,5.61,5.61,0,0,1,3.53,1.16c1.5,1.25,1.93,3,1.93,5.25v8c0,1.94.77,2.58,1.5,2.58a3.27,3.27,0,0,0,1.55-.47l.43,1.12Zm-3.14-10.84c-.9.47-3,1.38-3.87,1.81-1.68.77-2.62,1.59-2.62,3.14a3.15,3.15,0,0,0,3.05,3.31,6.15,6.15,0,0,0,3.44-1.55Z"/>
  <path d="M217.83,189.82V188.7c2.54-.26,2.84-.6,2.84-3.57v-7.18c0-3-1-4.9-3.91-4.9a7.69,7.69,0,0,0-4.69,2.19v10.1c0,2.92.26,3.1,2.79,3.35v1.12h-9.33V188.7c2.92-.3,3.14-.52,3.14-3.35v-8.9c0-2.75-.26-2.88-2.58-3.31v-1a25.84,25.84,0,0,0,6-1.76v3.44c.86-.65,1.81-1.29,2.88-2a6.59,6.59,0,0,1,3.57-1.29c3.4,0,5.55,2.36,5.55,6.54v8.3c0,2.92.21,3.1,2.71,3.35v1.12Z"/>
  <path d="M1.43,211.46c.24,1.67,1.14,3.94,3.56,3.94a2.59,2.59,0,0,0,2.64-2.84c0-1.25-.77-2.09-2-3.1L5,209c-1-.81-2.46-2-2.46-3.85,0-2.29,1.83-3.94,4.47-3.94a6.51,6.51,0,0,1,2.09.37l1,.35c-.09.92,0,2.09-.07,3.08l-.64.07c-.18-1.65-.75-3.15-2.64-3.15a2.46,2.46,0,0,0-2.46,2.57c0,1.28.9,2.07,2,2.95l.66.48c1.52,1.14,2.55,2.29,2.55,4,0,2.57-2.27,4.2-4.8,4.2A5.66,5.66,0,0,1,.9,214.78c0-.51,0-1.69-.07-3.26Z"/>
  <path d="M18.7,213.64a6.49,6.49,0,0,1-4.4,2.44c-1.41,0-2.35-1.12-2.35-3.23a7.61,7.61,0,0,1,2.27-5.28,6.47,6.47,0,0,1,3.52-1.63c.95,0,1.65.55,1.67,1.1a1.21,1.21,0,0,1-.73,1c-.18.11-.33.07-.48-.13a1.94,1.94,0,0,0-1.65-.95,2.28,2.28,0,0,0-1.83,1.45,8.64,8.64,0,0,0-1,4c0,1.56.62,2.38,1.56,2.38a5.19,5.19,0,0,0,3.06-1.63Z"/>
  <path d="M25.12,213.88c-.73.9-2.44,2.2-3.21,2.2-.44,0-.73-.35-.29-2.16L23,208.29c.13-.48.13-.7,0-.7a4.27,4.27,0,0,0-1.5.95l-.26-.51a7.38,7.38,0,0,1,3.34-2.09c.48,0,.46.7.22,1.74l-1.52,6.07c-.13.53-.09.7,0,.7a4.51,4.51,0,0,0,1.54-1Zm.57-11.18A1.23,1.23,0,0,1,24.53,204a.93.93,0,0,1-.92-1,1.29,1.29,0,0,1,1.21-1.3A.91.91,0,0,1,25.7,202.7Z"/>
  <path d="M34.43,213.59c-1.94,2.07-3.59,2.49-4.64,2.49s-2.42-.59-2.42-3.21a7.31,7.31,0,0,1,2.64-5.7,5.49,5.49,0,0,1,3-1.23A1.81,1.81,0,0,1,35,207.7c0,2.18-3.7,3.37-5.81,3.89a4,4,0,0,0,0,.7c0,1.19.37,2.49,1.72,2.49a5.12,5.12,0,0,0,3.21-1.69Zm-3.1-6.49c-.59.33-1.69,1.34-2.07,3.81,3.15-.84,4.07-1.85,4.07-2.86a1.08,1.08,0,0,0-1.1-1.21A1.8,1.8,0,0,0,31.33,207.1Z"/>
  <path d="M46.64,213.95c-1.3,1.41-2.53,2.13-3.1,2.13s-.75-.59-.35-2.29.79-3.26,1.19-4.88c.31-1.25.18-1.58-.18-1.58-1,0-3.52,2.73-4.62,4.6-.26,1.08-.59,2.4-.86,3.72a10.7,10.7,0,0,0-1.58.44L37,215.9c.59-2.38,1.25-5,1.78-7.46.18-.7.11-.88,0-.88a4.09,4.09,0,0,0-1.43,1L37,208a6,6,0,0,1,3.1-2.09c.51,0,.59.75.18,2.44l-.46,1.91h0a14.83,14.83,0,0,1,4-3.87,3,3,0,0,1,1.47-.48c.53,0,1.14.33.48,3.15-.35,1.5-.7,3-1.08,4.58-.13.59-.11.79,0,.79a3.85,3.85,0,0,0,1.45-1Z"/>
  <path d="M55.57,213.64a6.49,6.49,0,0,1-4.4,2.44c-1.41,0-2.35-1.12-2.35-3.23a7.61,7.61,0,0,1,2.27-5.28,6.47,6.47,0,0,1,3.52-1.63c.95,0,1.65.55,1.67,1.1a1.21,1.21,0,0,1-.73,1c-.18.11-.33.07-.48-.13a1.94,1.94,0,0,0-1.65-.95,2.28,2.28,0,0,0-1.83,1.45,8.64,8.64,0,0,0-1,4c0,1.56.62,2.38,1.56,2.38a5.19,5.19,0,0,0,3.06-1.63Z"/>
  <path d="M64.68,213.59c-1.94,2.07-3.59,2.49-4.64,2.49s-2.42-.59-2.42-3.21a7.31,7.31,0,0,1,2.64-5.7,5.49,5.49,0,0,1,3-1.23,1.81,1.81,0,0,1,1.94,1.76c0,2.18-3.7,3.37-5.81,3.89a4,4,0,0,0,0,.7c0,1.19.37,2.49,1.72,2.49a5.12,5.12,0,0,0,3.21-1.69Zm-3.1-6.49c-.59.33-1.69,1.34-2.07,3.81,3.15-.84,4.07-1.85,4.07-2.86a1.08,1.08,0,0,0-1.1-1.21A1.8,1.8,0,0,0,61.58,207.1Z"/>
  <path d="M84,201.54c-.07.4-.26,2.07-.42,3.37l-.64,0a5,5,0,0,0-.29-1.94c-.24-.51-.53-.75-2.13-.75H78.78c-.75,0-.79.09-1,.9l-.9,4.77H79c1.85,0,2-.18,2.51-1.61h.64l-.84,4.16h-.62c0-1.54,0-1.69-1.87-1.69H76.74L76,212.65c-.24,1.28-.22,1.85.11,2.11s1,.31,2.22.31c1.63,0,2.29-.18,2.88-.75a9.41,9.41,0,0,0,1.47-2.11l.62.22c-.24.59-1.06,2.71-1.36,3.39H71.65l.13-.59c1.78-.15,2-.26,2.31-2l1.74-9c.35-1.76.24-1.87-1.56-2l.13-.57Z"/>
  <path d="M95.08,213.86a6,6,0,0,1-3.23,2.22c-.44,0-.75-.35-.4-2l.4-1.87,0,0a15.34,15.34,0,0,1-2.9,2.88,3.66,3.66,0,0,1-2.13,1c-.73,0-1.43-.88-1.43-2.64a8,8,0,0,1,2.55-5.81,7.39,7.39,0,0,1,3.89-1.69,3.33,3.33,0,0,1,1.3.24l.73-3.63c.2-1,.13-1.08-.84-1.08h-.7l.07-.55a28.58,28.58,0,0,0,3.37-.77c.2,0,.24.18.15.62-1,4.4-2,8.67-2.73,12.94-.11.53-.07.73.09.73a3.81,3.81,0,0,0,1.56-1.08Zm-3-3.26.7-3.15a3,3,0,0,0-1.78-.57,2.47,2.47,0,0,0-1.54.46c-1.47,1.06-2.33,3.83-2.33,5.68,0,1.12.31,1.63.68,1.63C89,214.65,91.39,211.92,92.11,210.6Z"/>
  <path d="M107,213.84c-1.06,1.28-2.51,2.24-3.19,2.24-.46,0-.77-.42-.33-2.33.18-.77.26-1.21.42-1.94h0a17.14,17.14,0,0,1-3.54,3.59,3.24,3.24,0,0,1-1.78.68c-.59,0-1.3-.42-.73-2.79.4-1.69.79-3.39,1.19-5.06.13-.55.11-.75-.07-.75a6.46,6.46,0,0,0-1.54,1.06l-.24-.53a6.67,6.67,0,0,1,3.23-2.07c.51,0,.59.44.24,1.91-.4,1.74-.79,3.52-1.21,5.28-.24,1.08-.07,1.45.26,1.45,1.23,0,3.7-2.95,4.55-4.55.24-1,.51-2.18.79-3.52l1.52-.57h.24c-.59,2.33-1.17,4.8-1.72,7.66-.13.68-.09.86.07.86a4.48,4.48,0,0,0,1.58-1.14Z"/>
  <path d="M115.79,213.64a6.49,6.49,0,0,1-4.4,2.44c-1.41,0-2.35-1.12-2.35-3.23a7.61,7.61,0,0,1,2.27-5.28,6.46,6.46,0,0,1,3.52-1.63c.95,0,1.65.55,1.67,1.1a1.21,1.21,0,0,1-.73,1c-.18.11-.33.07-.48-.13a1.94,1.94,0,0,0-1.65-.95,2.28,2.28,0,0,0-1.83,1.45,8.64,8.64,0,0,0-1,4c0,1.56.62,2.38,1.56,2.38a5.19,5.19,0,0,0,3.06-1.63Z"/>
  <path d="M127.09,213.79a6,6,0,0,1-3.21,2.29c-.42,0-.7-.33-.4-1.94l.44-2.09h0a15.84,15.84,0,0,1-2.84,3,3.65,3.65,0,0,1-2,1c-.57,0-1.28-.73-1.28-2.49a8.11,8.11,0,0,1,2.64-6,7,7,0,0,1,4.09-1.69,7.19,7.19,0,0,1,1.36.15,4.32,4.32,0,0,0,.84.13l.07.09c-.35,1.36-1,4.36-1.52,7.15-.15.77-.09.95,0,.95a4.78,4.78,0,0,0,1.58-1.14Zm-2.86-3.43c.24-.88.57-2.46.73-3.17a3.68,3.68,0,0,0-1.47-.31,2.73,2.73,0,0,0-1.56.46c-1.5,1.1-2.37,3.7-2.37,5.88,0,1,.29,1.45.59,1.45C121,214.67,123.49,211.88,124.23,210.36Z"/>
  <path d="M134.57,207l-2.18.11-1.3,6.07c-.22,1.08-.11,1.32.13,1.32a4.87,4.87,0,0,0,2-1.28l.31.46c-.73.88-2.38,2.35-3.54,2.35-.51,0-.95-.64-.46-2.9l1.3-6h-1.63l-.07-.2.55-.66H131l.51-2.09,1.67-1.36.2.13-.77,3.32h2.55Z"/>
  <path d="M140,213.88c-.73.9-2.44,2.2-3.21,2.2-.44,0-.73-.35-.29-2.16l1.37-5.63c.13-.48.13-.7,0-.7a4.27,4.27,0,0,0-1.5.95l-.26-.51a7.39,7.39,0,0,1,3.34-2.09c.48,0,.46.7.22,1.74l-1.52,6.07c-.13.53-.09.7,0,.7a4.51,4.51,0,0,0,1.54-1Zm.57-11.18a1.23,1.23,0,0,1-1.17,1.28.93.93,0,0,1-.92-1,1.29,1.29,0,0,1,1.21-1.3A.91.91,0,0,1,140.58,202.7Z"/>
  <path d="M142.29,212.65a6.7,6.7,0,0,1,3.34-6,5.58,5.58,0,0,1,2.38-.7c1.83,0,2.93,1.25,2.93,3.43a7.13,7.13,0,0,1-2.35,5.32,5.47,5.47,0,0,1-3.39,1.39C143.11,216.08,142.29,214.43,142.29,212.65Zm4.4,2.42c1.19-.51,2.4-2.84,2.4-5.65,0-1.78-.77-2.64-1.78-2.64a2,2,0,0,0-.84.2c-.86.37-2.33,2.18-2.33,5.57,0,1.63.68,2.66,1.85,2.66A1.83,1.83,0,0,0,146.7,215.07Z"/>
  <path d="M162.84,213.95c-1.3,1.41-2.53,2.13-3.1,2.13s-.75-.59-.35-2.29.79-3.26,1.19-4.88c.31-1.25.18-1.58-.18-1.58-1,0-3.52,2.73-4.62,4.6-.26,1.08-.59,2.4-.86,3.72a10.69,10.69,0,0,0-1.58.44l-.13-.18c.59-2.38,1.25-5,1.78-7.46.18-.7.11-.88,0-.88a4.07,4.07,0,0,0-1.43,1l-.29-.53a6,6,0,0,1,3.1-2.09c.51,0,.59.75.18,2.44l-.46,1.91h0a14.83,14.83,0,0,1,4-3.87,3,3,0,0,1,1.47-.48c.53,0,1.14.33.48,3.15-.35,1.5-.7,3-1.08,4.58-.13.59-.11.79,0,.79a3.85,3.85,0,0,0,1.45-1Z"/>
  <path d="M183.17,212.3a22.66,22.66,0,0,1-1.74,3.32,17.08,17.08,0,0,1-3.79.53c-3.67,0-6.4-2.22-6.4-6.34,0-5.21,4-8.63,9.13-8.63a10.4,10.4,0,0,1,3.76.73c-.07,1.12-.09,2.31-.18,3.37l-.66.07c-.11-2.62-1.25-3.39-3.43-3.39-3.87,0-6.49,3.72-6.49,7.79,0,3.15,1.56,5.65,4.51,5.65,2.2,0,3.5-1.5,4.71-3.41Z"/>
  <path d="M192.41,213.59c-1.94,2.07-3.59,2.49-4.64,2.49s-2.42-.59-2.42-3.21a7.31,7.31,0,0,1,2.64-5.7,5.49,5.49,0,0,1,3-1.23A1.81,1.81,0,0,1,193,207.7c0,2.18-3.7,3.37-5.81,3.89a4,4,0,0,0,0,.7c0,1.19.37,2.49,1.72,2.49a5.12,5.12,0,0,0,3.21-1.69Zm-3.1-6.49c-.59.33-1.69,1.34-2.07,3.81,3.15-.84,4.07-1.85,4.07-2.86a1.08,1.08,0,0,0-1.1-1.21A1.81,1.81,0,0,0,189.31,207.1Z"/>
  <path d="M204.62,213.95c-1.3,1.41-2.53,2.13-3.1,2.13s-.75-.59-.35-2.29.79-3.26,1.19-4.88c.31-1.25.18-1.58-.18-1.58-1,0-3.52,2.73-4.62,4.6-.26,1.08-.59,2.4-.86,3.72a10.69,10.69,0,0,0-1.58.44l-.13-.18c.59-2.38,1.25-5,1.78-7.46.18-.7.11-.88,0-.88a4.07,4.07,0,0,0-1.43,1L195,208a6,6,0,0,1,3.1-2.09c.51,0,.59.75.18,2.44l-.46,1.91h0a14.83,14.83,0,0,1,4-3.87,3,3,0,0,1,1.47-.48c.53,0,1.14.33.48,3.15-.35,1.5-.7,3-1.08,4.58-.13.59-.11.79,0,.79a3.85,3.85,0,0,0,1.45-1Z"/>
  <path d="M212.37,207l-2.18.11-1.3,6.07c-.22,1.08-.11,1.32.13,1.32a4.87,4.87,0,0,0,2-1.28l.31.46c-.73.88-2.38,2.35-3.54,2.35-.51,0-.95-.64-.46-2.9l1.3-6H207l-.07-.2.55-.66h1.32l.51-2.09,1.67-1.36.2.13-.77,3.32h2.55Z"/>
  <path d="M220.62,213.59c-1.94,2.07-3.59,2.49-4.64,2.49s-2.42-.59-2.42-3.21a7.31,7.31,0,0,1,2.64-5.7,5.49,5.49,0,0,1,3-1.23,1.81,1.81,0,0,1,1.94,1.76c0,2.18-3.7,3.37-5.81,3.89a4,4,0,0,0,0,.7c0,1.19.37,2.49,1.72,2.49a5.12,5.12,0,0,0,3.21-1.69Zm-3.1-6.49c-.59.33-1.69,1.34-2.07,3.81,3.15-.84,4.07-1.85,4.07-2.86a1.08,1.08,0,0,0-1.1-1.21A1.8,1.8,0,0,0,217.51,207.1Z"/>
  <path d="M223,208.09c1.12-1.25,2.49-2.16,3.08-2.16s.57,1,.24,2.55l-.22,1.1h.07c1.12-2.16,2.42-3.65,3.3-3.65a1.19,1.19,0,0,1,.95.55,1,1,0,0,1,0,.95,2.32,2.32,0,0,1-.57.64c-.2.13-.37.13-.48,0a1,1,0,0,0-.75-.37c-.26,0-.62.22-1.12.92a15,15,0,0,0-1.56,2.73c-.35,1.47-.62,2.86-.88,4.31a8.12,8.12,0,0,0-1.56.4l-.18-.18c.57-2.35,1.19-5.06,1.61-7.42.13-.73.13-.95,0-.95a4.38,4.38,0,0,0-1.56,1.06Z"/>
</svg>
