<svg xmlns="http://www.w3.org/2000/svg" viewBox="183 202 36 36" enable-background="new 183 202 36 36"><path d="M191.2 203.8c1 .3 2.2.9 2.6.2.2.2.4 0 .6 0 .8-.1 1.5-.2 2.3-.2.7 0 1.2.1 1.9.4.8.3 1.2.7 1.9 1.2s.9.8 1.3 1.6c.2.3.4.5.5.8.5 1.1.8 2 1.1 3.2l.7 2.2c-.2.2-.2.9-.2 1.6-.1-.1-.2-.3-.2-.5-.4.8.6 1.1.9 1.6.2.3.4.8.7 1.1.5.6 1.4.9 2 1.5.5.5 1 1.5 1.3 2.3.1.3.3.7.4.9.1.4 0 .8.2 1.1l.6 1.2c.1.6.1 1.2.3 1.8 1.4-.2 2.8-2.4 4.2-2.5.5 0 1.3.1 1.3.9.4-.1.5.1.8.1.2.3.3.8.7.9 0 .2 0 .4-.1.5.1.3.5.2.6.4 0 .4-.2.7.2.8v.2c-.1.1-.3.3-.2.6-.7 1.3-2.9 1.5-4.1 2.3-.1.1-.5.2-.4.4-.6.2-1.2.2-1.6.2 0 .2.3.5.2.6 0 .2.6-.1.4.3.3-.2.6 0 .7.2.3-.1.7-.1 1 0-.3.6-1.3.6-2 .8-.2.9.2.9.5 1.5-.6 0-.6.7-1.1.9-.4-.1-.5-.5-.8-.7-.5 0-.8.3-1.2.2-.3.3-.6.5-.8.9-.3-.2-.5-.1-.7.2-.2.1-.2-.2-.2-.2-.3.1-.2.5-.6.2-.3.4-.6.8-.8 1.1.5.1 1.5-.2 1.4.7-.5 0-.8.1-1.6.1 0 .1.1.1.2.2-.4 0-.8 0-.9.2-.7-.8-2.9-.1-3.9.1h-.2c-.1-.2 0-.2-.2-.2-.1-.1-.1 0-.3 0-.6 0-1.2.1-1.6-.1-.6 0-1.4.3-2 .2-.2 0-.6 0-.7-.2-.3-.1-.4.5-.6.1-.1-.3.1-.7.3-.8.5-.2.8.3 1.5.3.2 0 .8-.1 1.1-.2.4-.2 1-1.4 1.1-2 .3-1.5-.4-2.2-1.1-3.2-.5-.6-1-1.3-1.3-1.8-.6-.9-1.1-2.1-1.6-3l-.6-1c-.8-1.9-.8-4.2-.6-6.4.1-1 .4-1.9.5-2.8.1-.5 0-1.2.2-1.8.3-.9.8-1.4.5-2.2-.3.1-.3.1-.2-.2-.3-1.1-.8-1.7-1.3-2.5-.3-.5-.5-1.1-1-1.6 0-.4-.1-.6-.2-.9-1-1.1-2.6-1.6-3.9-2.5-1.3-.8-3-1.8-3.8-2.9l-.1-.1v-.1h.1c1.6.3 4.3 1.1 5.9 1.8zm10.2 30.3l.2.6c-.4.2-.9-.1-1.2-.3-.2 1.1-1 1.6-1 2.9.4 0 .5-.4 1-.5l.6.1c1 .1 2.3-.2 3.3-.2.3-.6.9-.9 1.1-1.6-.4 0-.1-.4-.2-.6-.6.2-1.3-.1-2-.2-.3 0-.7.1-1.1.1-.3-.1-.4-.4-.7-.3z"/></svg>